<mxfile host="app.diagrams.net" modified="2021-06-04T08:33:50.982Z" agent="5.0 (Windows NT 10.0; Win64; x64) AppleWebKit/537.36 (KHTML, like Gecko) Chrome/91.0.4472.77 Safari/537.36 Edg/91.0.864.37" etag="kts7NnijNn0HNlLBjlYM" version="14.7.4" type="github">
  <diagram id="9EMvskjH2FNvZDOY8kx9" name="第 1 页">
    <mxGraphModel dx="2575" dy="1032" grid="0" gridSize="10" guides="1" tooltips="1" connect="1" arrows="1" fold="1" page="0" pageScale="1" pageWidth="827" pageHeight="1169" math="0" shadow="0">
      <root>
        <mxCell id="0" />
        <mxCell id="1" parent="0" />
        <mxCell id="6T7OkVMTFzllAM_vjtmO-1" value="自助口罩售货机" style="whiteSpace=wrap;html=1;hachureGap=4;pointerEvents=0;fontFamily=Architects Daughter;fontSource=https%3A%2F%2Ffonts.googleapis.com%2Fcss%3Ffamily%3DArchitects%2BDaughter;fontSize=20;rounded=1;" vertex="1" parent="1">
          <mxGeometry x="119" y="323" width="160" height="80" as="geometry" />
        </mxCell>
        <mxCell id="6T7OkVMTFzllAM_vjtmO-2" value="" style="shape=curlyBracket;whiteSpace=wrap;html=1;rounded=1;flipH=1;sketch=0;hachureGap=4;pointerEvents=0;fontFamily=Architects Daughter;fontSource=https%3A%2F%2Ffonts.googleapis.com%2Fcss%3Ffamily%3DArchitects%2BDaughter;fontSize=20;rotation=-90;" vertex="1" parent="1">
          <mxGeometry x="179.5" y="303" width="39" height="233" as="geometry" />
        </mxCell>
        <mxCell id="6T7OkVMTFzllAM_vjtmO-3" value="硬件系统" style="rounded=1;whiteSpace=wrap;html=1;sketch=0;hachureGap=4;pointerEvents=0;fontFamily=Architects Daughter;fontSource=https%3A%2F%2Ffonts.googleapis.com%2Fcss%3Ffamily%3DArchitects%2BDaughter;fontSize=20;" vertex="1" parent="1">
          <mxGeometry x="25" y="447" width="120" height="60" as="geometry" />
        </mxCell>
        <mxCell id="6T7OkVMTFzllAM_vjtmO-4" value="软件系统" style="rounded=1;whiteSpace=wrap;html=1;sketch=0;hachureGap=4;pointerEvents=0;fontFamily=Architects Daughter;fontSource=https%3A%2F%2Ffonts.googleapis.com%2Fcss%3Ffamily%3DArchitects%2BDaughter;fontSize=20;" vertex="1" parent="1">
          <mxGeometry x="255" y="447" width="120" height="60" as="geometry" />
        </mxCell>
        <mxCell id="6T7OkVMTFzllAM_vjtmO-7" value="下位机" style="rounded=1;whiteSpace=wrap;html=1;sketch=0;hachureGap=4;pointerEvents=0;fontFamily=Architects Daughter;fontSource=https%3A%2F%2Ffonts.googleapis.com%2Fcss%3Ffamily%3DArchitects%2BDaughter;fontSize=20;" vertex="1" parent="1">
          <mxGeometry x="-13" y="550" width="120" height="60" as="geometry" />
        </mxCell>
        <mxCell id="6T7OkVMTFzllAM_vjtmO-9" value="" style="endArrow=none;dashed=1;html=1;dashPattern=1 3;strokeWidth=2;rounded=0;sketch=1;fontFamily=Architects Daughter;fontSource=https%3A%2F%2Ffonts.googleapis.com%2Fcss%3Ffamily%3DArchitects%2BDaughter;fontSize=20;startSize=14;endSize=14;sourcePerimeterSpacing=8;targetPerimeterSpacing=8;edgeStyle=none;curved=1;" edge="1" parent="1">
          <mxGeometry width="50" height="50" relative="1" as="geometry">
            <mxPoint x="-404" y="405" as="sourcePoint" />
            <mxPoint x="-28" y="405" as="targetPoint" />
          </mxGeometry>
        </mxCell>
        <mxCell id="6T7OkVMTFzllAM_vjtmO-10" value="" style="endArrow=none;dashed=1;html=1;dashPattern=1 3;strokeWidth=2;rounded=0;sketch=1;fontFamily=Architects Daughter;fontSource=https%3A%2F%2Ffonts.googleapis.com%2Fcss%3Ffamily%3DArchitects%2BDaughter;fontSize=20;startSize=14;endSize=14;sourcePerimeterSpacing=8;targetPerimeterSpacing=8;edgeStyle=none;curved=1;" edge="1" parent="1">
          <mxGeometry width="50" height="50" relative="1" as="geometry">
            <mxPoint x="-412" y="521" as="sourcePoint" />
            <mxPoint x="-24" y="521" as="targetPoint" />
          </mxGeometry>
        </mxCell>
        <mxCell id="6T7OkVMTFzllAM_vjtmO-11" value="软硬件范围" style="text;html=1;align=center;verticalAlign=middle;resizable=0;points=[];autosize=1;strokeColor=none;rounded=1;sketch=0;hachureGap=4;pointerEvents=0;fontFamily=Architects Daughter;fontSource=https%3A%2F%2Ffonts.googleapis.com%2Fcss%3Ffamily%3DArchitects%2BDaughter;fontSize=20;" vertex="1" parent="1">
          <mxGeometry x="-335" y="451" width="110" height="27" as="geometry" />
        </mxCell>
        <mxCell id="6T7OkVMTFzllAM_vjtmO-12" value="" style="endArrow=classic;html=1;rounded=0;sketch=0;fontFamily=Architects Daughter;fontSource=https%3A%2F%2Ffonts.googleapis.com%2Fcss%3Ffamily%3DArchitects%2BDaughter;fontSize=20;startSize=14;endSize=14;sourcePerimeterSpacing=8;targetPerimeterSpacing=8;edgeStyle=none;curved=1;" edge="1" parent="1">
          <mxGeometry width="50" height="50" relative="1" as="geometry">
            <mxPoint x="84" y="507" as="sourcePoint" />
            <mxPoint x="84" y="538" as="targetPoint" />
          </mxGeometry>
        </mxCell>
        <mxCell id="6T7OkVMTFzllAM_vjtmO-14" value="上位机" style="rounded=1;whiteSpace=wrap;html=1;sketch=0;hachureGap=4;pointerEvents=0;fontFamily=Architects Daughter;fontSource=https%3A%2F%2Ffonts.googleapis.com%2Fcss%3Ffamily%3DArchitects%2BDaughter;fontSize=20;" vertex="1" parent="1">
          <mxGeometry x="193" y="547" width="120" height="60" as="geometry" />
        </mxCell>
        <mxCell id="6T7OkVMTFzllAM_vjtmO-15" value="下位机" style="rounded=1;whiteSpace=wrap;html=1;sketch=0;hachureGap=4;pointerEvents=0;fontFamily=Architects Daughter;fontSource=https%3A%2F%2Ffonts.googleapis.com%2Fcss%3Ffamily%3DArchitects%2BDaughter;fontSize=20;" vertex="1" parent="1">
          <mxGeometry x="335" y="547" width="120" height="60" as="geometry" />
        </mxCell>
        <mxCell id="6T7OkVMTFzllAM_vjtmO-19" value="" style="shape=curlyBracket;whiteSpace=wrap;html=1;rounded=1;flipH=1;sketch=0;hachureGap=4;pointerEvents=0;fontFamily=Architects Daughter;fontSource=https%3A%2F%2Ffonts.googleapis.com%2Fcss%3Ffamily%3DArchitects%2BDaughter;fontSize=20;rotation=-90;" vertex="1" parent="1">
          <mxGeometry x="309" y="461" width="20" height="120" as="geometry" />
        </mxCell>
      </root>
    </mxGraphModel>
  </diagram>
</mxfile>
